<?xml version="1.0" encoding="UTF-8"?>
<svg id="Camada_1" data-name="Camada 1" xmlns="http://www.w3.org/2000/svg" viewBox="0 0 1080 1080">
  <defs>
    <style>
      .cls-1 {
        fill: #b497ff;
      }
    </style>
  </defs>
  <path class="cls-1" d="M22.03,588.2c5.96-28.5,13.41-35.83,19.44-36.76,7.36-1.13,10.87,7.54,28.47,13.33,11.17,3.68,20.19,3.54,25.61,3.54,11.55,0,20.21-2.28,25.99-6.86,5.77-4.57,8.66-10.92,8.66-19.06,0-7.53-2.31-13.38-6.93-17.55-4.62-4.17-13.01-7.71-25.16-10.62-23.91-5.62-41.28-13.48-52.13-23.58-10.85-10.09-16.27-24.13-16.27-42.11s7.01-33.62,21.02-46.33c14.01-12.7,33.67-19.06,58.98-19.06,10.55,0,20.92,1.21,31.11,3.62,10.19,2.41,19.96,5.98,29.3,10.7-5.49,29.19-12.43,36.26-17.93,37.06-5.77.84-8.67-5.41-23.43-10.02-3.4-1.06-10.97-3.09-20.72-3.09s-17.7,1.98-23.28,5.95c-5.57,3.97-8.36,9.67-8.36,17.1,0,6.73,2.54,11.9,7.61,15.52,5.07,3.62,14.19,7.03,27.34,10.24,23.2,5.42,39.97,13.39,50.32,23.88,10.34,10.5,15.52,25.24,15.52,44.22,0,20.29-7.13,36.74-21.39,49.34-14.26,12.61-34.9,18.91-61.92,18.91-12.15,0-24.63-1.61-37.44-4.82s-24.28-7.73-34.43-13.56Z"/>
  <path class="cls-1" d="M336.46,592.41c-8.04,4.92-16.22,8.54-24.56,10.85-8.34,2.31-17.33,3.47-26.97,3.47-26.21,0-46.7-7.36-61.47-22.07-14.76-14.71-22.15-33.72-22.15-57.02,0-26.82,7.88-47.99,23.65-63.5,15.77-15.52,36.71-23.28,62.83-23.28,9.64,0,18.15.96,25.54,2.86,7.38,1.91,14.74,4.92,22.07,9.04l-17.33,31.19c-4.62-2.71-9.22-4.64-13.79-5.8-4.57-1.15-9.47-1.73-14.69-1.73-12.96,0-23.1,4.19-30.43,12.58-7.33,8.39-11,20.21-11,35.48s3.92,26.12,11.75,34.35c7.83,8.24,17.68,12.35,29.53,12.35,3.51,0,7.88-.73,13.11-2.18,5.22-1.45,10.49-3.84,15.82-7.16l18.08,30.58Z"/>
  <path class="cls-1" d="M462.26,483.19c-2.01-.5-4.07-.88-6.18-1.13-2.11-.25-4.42-.38-6.93-.38-12.56,0-22.02,3.99-28.4,11.98-6.38,7.98-9.57,19.06-9.57,33.22v75.93h-46.1v-158.04h46.1v29.53h.6c3.71-10.75,9.09-18.81,16.12-24.18,7.03-5.37,15.57-8.06,25.61-8.06,2.41,0,4.75.15,7.01.45s4.6.7,7.01,1.21l-5.27,39.47Z"/>
  <path class="cls-1" d="M635.37,583.83h-.6v89.94h-46.1v-229c18.22-13.44,39.03-10.46,46.1,0,6.19,9.16.77,22.44,0,24.26h.6c6.03-9.44,13.33-16.5,21.92-21.17,8.59-4.67,18.36-7.01,29.3-7.01,20.49,0,36.33,7.03,47.53,21.09,11.2,14.06,16.8,33.2,16.8,57.4,0,26.32-6.53,47.46-19.59,63.43-13.06,15.97-30.38,23.95-51.98,23.95-9.64,0-18.1-1.91-25.39-5.73s-13.48-9.54-18.61-17.18ZM634.01,519.19v13.71c0,11.15,3.04,20.32,9.11,27.5,6.08,7.18,14.04,10.77,23.88,10.77,11.55,0,20.54-4.47,26.97-13.41,6.43-8.94,9.64-21.59,9.64-37.97,0-14.36-2.84-25.18-8.51-32.47-5.68-7.28-14.09-10.92-25.24-10.92s-19.28,3.92-25.91,11.75c-6.63,7.83-9.94,18.18-9.94,31.04Z"/>
  <path class="cls-1" d="M882,600.25c-4.82,2.11-10.17,3.69-16.05,4.75-5.87,1.05-11.88,1.58-18,1.58-16.87,0-29.61-4.12-38.19-12.35-8.59-8.23-12.88-20.49-12.88-36.76v-78.64h-25.76v-34.05h25.76v-35.56l45.95-13.26v48.81h36.01v34.05h-36.01v75.48c0,6.43,1.25,11.1,3.77,14.01,2.51,2.91,6.38,4.37,11.6,4.37,2.71,0,5.27-.32,7.68-.98,2.41-.65,4.72-1.53,6.93-2.64l9.19,31.19Z"/>
  <path class="cls-1" d="M1057.97,444.77l-70.96,186.97c-5.42,14.26-13.48,25.34-24.18,33.22-10.7,7.88-23.53,11.83-38.49,11.83-4.89,0-11.06-.53-14.09-.83-7.62-.76-11.47-1.16-13.03-2.49-8.36-7.08.61-33.87,7.99-34.35,1.67-.11,2.48,1.19,7.16,2.18.91.19,4.04.68,7.76.68,5.12,0,9.59-1.28,13.41-3.84,3.82-2.56,6.93-6.61,9.34-12.13l10.09-23.5-64.03-157.74h50.92l31.04,99.13c.9,2.71,1.71,5.75,2.41,9.11.7,3.37,1.3,7.01,1.81,10.92h.6c.5-2.91,1.18-5.97,2.03-9.19.85-3.21,1.83-6.73,2.94-10.55l31.64-99.44h45.65Z"/>
  <g>
    <path class="cls-1" d="M562.6,446c-4.76,46.68-9.51,93.36-14.27,140.03-2.55,8.11-6.97,19.56-14.82,31.78-7.34,11.43-14.22,22.15-21.53,21.26-6.79-.83-10.66-11.27-16.2-26.25-4.8-12.99-7.16-24.32-8.4-32.19,4.96-46.99,9.93-93.99,14.89-140.98l60.32,6.36Z"/>
    <path class="cls-1" d="M563.51,430.79l-58.61-5.41c-.81-.33-.62-4.56-.57-5.54.45-8.27,1.86-26.33,4.6-33.45,6.77-17.64,25.3-16.95,40.13-13.19,8.1,2.05,19.1,13.44,18.14,22.61l-3.69,34.97Z"/>
  </g>
  <path class="cls-1" d="M421.27,667.97h122.02c8.36,0,8.38-13,0-13h-122.02c-8.36,0-8.38,13,0,13h0Z"/>
  <path class="cls-1" d="M421.72,692.29h118.93c8.36,0,8.38-13,0-13h-118.93c-8.36,0-8.38,13,0,13h0Z"/>
  <path class="cls-1" d="M421.27,715.46h69.86c8.36,0,8.38-13,0-13h-1.34c-8.36,0-8.38,13,0,13h1.34c8.36,0,8.38-13,0-13h-69.86c-8.36,0-8.38,13,0,13h0Z"/>
</svg>