<?xml version="1.0" encoding="UTF-8"?>
<svg id="Camada_1" data-name="Camada 1" xmlns="http://www.w3.org/2000/svg" viewBox="0 0 1080 1080">
  <defs>
    <style>
      .cls-1 {
        opacity: .07;
      }

      .cls-1, .cls-2 {
        fill: #fff;
      }

      .cls-3 {
        fill: #b497ff;
      }
    </style>
  </defs>
  <circle class="cls-3" cx="540" cy="540" r="540"/>
  <path class="cls-1" d="M225.85,917.9c24.14-115.41,54.28-145.08,78.69-148.84,29.79-4.59,44,30.52,115.29,53.99,45.22,14.88,81.74,14.34,103.7,14.34,46.76,0,81.84-9.25,105.23-27.76,23.38-18.5,35.08-44.23,35.08-77.17,0-30.5-9.36-54.19-28.06-71.07-18.71-16.87-52.67-31.21-101.87-43.01-96.79-22.77-167.14-54.6-211.06-95.47-43.92-40.87-65.88-97.7-65.88-170.5s28.37-136.13,85.1-187.58c56.73-51.44,136.34-77.17,238.82-77.17,42.7,0,84.69,4.88,125.97,14.64,41.27,9.76,80.83,24.2,118.65,43.31-22.21,118.17-50.35,146.81-72.59,150.06-23.34,3.41-35.12-21.9-94.86-40.57-13.75-4.3-44.43-12.51-83.88-12.51s-71.68,8.03-94.25,24.1c-22.57,16.07-33.86,39.15-33.86,69.24,0,27.25,10.27,48.19,30.81,62.83,20.53,14.64,57.44,28.47,110.72,41.48,93.94,21.96,161.85,54.2,203.74,96.69,41.88,42.5,62.83,102.18,62.83,179.04,0,82.15-28.88,148.75-86.62,199.78-57.75,51.04-141.32,76.56-250.71,76.56-49.21,0-99.74-6.51-151.59-19.52-51.85-13.01-98.32-31.31-139.39-54.9Z"/>
  <g>
    <g>
      <path class="cls-2" d="M751.9,340.64c-66.97,83.78-133.93,167.56-200.9,251.35-14.94,12.43-37.61,28.94-67.84,42.7-28.27,12.87-54.76,24.93-67.7,14.16-12.03-10.01-6.51-34.86,1.41-70.5,6.86-30.91,16.39-55.6,23.75-72.26,67.76-84.13,135.51-168.26,203.27-252.4l108.01,86.95Z"/>
      <path class="cls-2" d="M772.5,312.54l-105.9-83c-1.15-1.63,4.46-9.53,5.77-11.35,11.1-15.33,36.2-48.27,50.27-58.56,34.86-25.49,69.59-1.21,93.43,24.39,13.02,13.99,20.05,49.49,6.83,65.91l-50.4,62.61Z"/>
    </g>
    <path class="cls-2" d="M210.97,767.76h494.52c13.6,0,26.63-11.96,26-26s-11.42-26-26-26H210.97c-13.6,0-26.63,11.96-26,26s11.42,26,26,26h0Z"/>
    <path class="cls-2" d="M212.76,843.42h481.98c13.6,0,26.63-11.96,26-26s-11.42-26-26-26H212.76c-13.6,0-26.63,11.96-26,26s11.42,26,26,26h0Z"/>
    <path class="cls-2" d="M210.97,919.08h283.13c13.6,0,26.63-11.96,26-26s-11.42-26-26-26h-5.41c-13.6,0-26.63,11.96-26,26s11.42,26,26,26h5.41c13.6,0,26.63-11.96,26-26s-11.42-26-26-26H210.97c-13.6,0-26.63,11.96-26,26s11.42,26,26,26h0Z"/>
  </g>
</svg>